<svg xmlns="http://www.w3.org/2000/svg" viewBox="0 0 600 900">
  <defs>
    <linearGradient id="bg4" x1="0" y1="0" x2="1" y2="1">
      <stop offset="0%" stop-color="#4a2a6b"/>
      <stop offset="100%" stop-color="#241237"/>
    </linearGradient>
    <pattern id="dots4" width="90" height="90" patternUnits="userSpaceOnUse">
      <circle cx="18" cy="25" r="1.4" fill="#d9b8f0" opacity="0.32"/>
      <circle cx="62" cy="50" r="1" fill="#d9b8f0" opacity="0.24"/>
      <circle cx="38" cy="72" r="1.2" fill="#d9b8f0" opacity="0.28"/>
    </pattern>
  </defs>
  <rect width="600" height="900" rx="28" fill="url(#bg4)"/>
  <rect width="600" height="900" rx="28" fill="url(#dots4)"/>
  <rect x="24" y="24" width="552" height="852" rx="18" fill="none" stroke="#d9b8f0" stroke-width="2" opacity="0.8"/>
  <rect x="36" y="36" width="528" height="828" rx="14" fill="none" stroke="#d9b8f0" stroke-width="1" opacity="0.4"/>
  <g transform="translate(300 450)">
    <circle r="95" fill="none" stroke="#d9b8f0" stroke-width="1.5" opacity="0.7"/>
    <circle r="72" fill="none" stroke="#d9b8f0" stroke-width="1" opacity="0.4"/>
    <!-- diamond / crystal motif -->
    <g fill="#e9d6f7" opacity="0.95">
      <path d="M 0 -55 L 32 0 L 0 55 L -32 0 Z" opacity="0.9"/>
      <path d="M 0 -55 L 0 55 L -32 0 Z" opacity="0.5"/>
      <path d="M 0 -55 L 32 0 L 0 0 Z" opacity="0.7"/>
    </g>
  </g>
  <g fill="#d9b8f0" opacity="0.6">
    <path d="M 300 120 l 6 12 13 2 -9 9 2 13 -12 -6 -12 6 2 -13 -9 -9 13 -2 Z"/>
    <path d="M 300 780 l 6 -12 13 -2 -9 -9 2 -13 -12 6 -12 -6 2 13 -9 9 13 2 Z"/>
  </g>
</svg>
