<svg xmlns="http://www.w3.org/2000/svg" viewBox="0 0 600 900">
  <defs>
    <linearGradient id="bg2" x1="0" y1="0" x2="1" y2="1">
      <stop offset="0%" stop-color="#7a2e1f"/>
      <stop offset="100%" stop-color="#3d1410"/>
    </linearGradient>
    <pattern id="dots2" width="90" height="90" patternUnits="userSpaceOnUse">
      <circle cx="15" cy="15" r="1.4" fill="#f0c48a" opacity="0.35"/>
      <circle cx="60" cy="45" r="1" fill="#f0c48a" opacity="0.25"/>
      <circle cx="35" cy="70" r="1.2" fill="#f0c48a" opacity="0.3"/>
    </pattern>
  </defs>
  <rect width="600" height="900" rx="28" fill="url(#bg2)"/>
  <rect width="600" height="900" rx="28" fill="url(#dots2)"/>
  <rect x="24" y="24" width="552" height="852" rx="18" fill="none" stroke="#f0c48a" stroke-width="2" opacity="0.85"/>
  <rect x="36" y="36" width="528" height="828" rx="14" fill="none" stroke="#f0c48a" stroke-width="1" opacity="0.4"/>
  <g transform="translate(300 450)">
    <circle r="95" fill="none" stroke="#f0c48a" stroke-width="1.5" opacity="0.7"/>
    <circle r="72" fill="none" stroke="#f0c48a" stroke-width="1" opacity="0.4"/>
    <!-- sun motif -->
    <circle r="34" fill="#f6d9a8" opacity="0.95"/>
    <g stroke="#f6d9a8" stroke-width="4" stroke-linecap="round">
      <line x1="0" y1="-58" x2="0" y2="-44"/>
      <line x1="0" y1="58" x2="0" y2="44"/>
      <line x1="-58" y1="0" x2="-44" y2="0"/>
      <line x1="58" y1="0" x2="44" y2="0"/>
      <line x1="-41" y1="-41" x2="-31" y2="-31"/>
      <line x1="41" y1="41" x2="31" y2="31"/>
      <line x1="-41" y1="41" x2="-31" y2="31"/>
      <line x1="41" y1="-41" x2="31" y2="-31"/>
    </g>
  </g>
  <g fill="#f0c48a" opacity="0.6">
    <path d="M 300 120 l 6 12 13 2 -9 9 2 13 -12 -6 -12 6 2 -13 -9 -9 13 -2 Z"/>
    <path d="M 300 780 l 6 -12 13 -2 -9 -9 2 -13 -12 6 -12 -6 2 13 -9 9 13 2 Z"/>
  </g>
</svg>
