<svg xmlns="http://www.w3.org/2000/svg" viewBox="0 0 600 900">
  <defs>
    <linearGradient id="bg" x1="0" y1="0" x2="1" y2="1">
      <stop offset="0%" stop-color="#2d3a5f"/>
      <stop offset="100%" stop-color="#1a2340"/>
    </linearGradient>
    <pattern id="stars" width="120" height="120" patternUnits="userSpaceOnUse">
      <circle cx="20" cy="30" r="1.5" fill="#8fa3d0" opacity="0.7"/>
      <circle cx="70" cy="80" r="1" fill="#8fa3d0" opacity="0.5"/>
      <circle cx="100" cy="20" r="1.2" fill="#8fa3d0" opacity="0.6"/>
      <circle cx="45" cy="105" r="0.8" fill="#8fa3d0" opacity="0.4"/>
      <circle cx="90" cy="55" r="1.4" fill="#8fa3d0" opacity="0.55"/>
    </pattern>
  </defs>
  <rect width="600" height="900" rx="28" fill="url(#bg)"/>
  <rect width="600" height="900" rx="28" fill="url(#stars)"/>
  <rect x="24" y="24" width="552" height="852" rx="18" fill="none" stroke="#c9a86a" stroke-width="2" opacity="0.8"/>
  <rect x="36" y="36" width="528" height="828" rx="14" fill="none" stroke="#c9a86a" stroke-width="1" opacity="0.4"/>
  <g transform="translate(300 450)">
    <circle r="90" fill="none" stroke="#c9a86a" stroke-width="1.5" opacity="0.7"/>
    <circle r="70" fill="none" stroke="#c9a86a" stroke-width="1" opacity="0.4"/>
    <!-- crescent moon -->
    <path d="M 20 -45 A 50 50 0 1 0 20 45 A 40 40 0 1 1 20 -45 Z" fill="#e8d9b0" opacity="0.9"/>
    <circle cx="-25" cy="10" r="3" fill="#e8d9b0" opacity="0.8"/>
    <circle cx="-40" cy="-20" r="2" fill="#e8d9b0" opacity="0.6"/>
  </g>
  <g fill="#c9a86a" opacity="0.6">
    <path d="M 300 120 l 6 12 13 2 -9 9 2 13 -12 -6 -12 6 2 -13 -9 -9 13 -2 Z"/>
    <path d="M 300 780 l 6 -12 13 -2 -9 -9 2 -13 -12 6 -12 -6 2 13 -9 9 13 2 Z"/>
  </g>
</svg>
